<svg width="108" height="108" viewBox="0 0 108 108" fill="none" xmlns="http://www.w3.org/2000/svg">
<mask id="mask0_3006_30" style="mask-type:alpha" maskUnits="userSpaceOnUse" x="0" y="0" width="108" height="108">
<rect width="108" height="108" fill="#D9D9D9"/>
</mask>
<g mask="url(#mask0_3006_30)">
<path d="M96.6511 53.6129C96.6511 76.9103 77.593 95.7913 54.0861 95.7913C30.5792 95.7913 11.5212 76.9103 11.5212 53.6129C11.5212 30.3154 30.5749 11.4365 54.0861 11.4365C77.5973 11.4365 96.6511 30.3175 96.6511 53.6129Z" fill="url(#paint0_linear_3006_30)"/>
<path d="M14.2877 53.6129C14.2877 75.3949 32.1024 93.046 54.0883 93.046C76.0742 93.046 93.8824 75.3949 93.8824 53.6129C93.8824 31.831 76.0699 14.1777 54.0883 14.1777C32.1067 14.1777 14.2877 31.8331 14.2877 53.6129Z" fill="url(#paint1_linear_3006_30)"/>
<path d="M54.0861 3C25.8723 3 3 25.658 3 53.6129C3 81.5677 25.8723 104.234 54.0861 104.234C82.2999 104.234 105.172 81.5741 105.172 53.6129C105.172 25.6516 82.2978 3 54.0861 3ZM54.0861 95.4908C30.7449 95.4908 11.818 76.7462 11.818 53.6129C11.818 30.4795 30.7449 11.7371 54.0861 11.7371C77.4273 11.7371 96.352 30.488 96.352 53.6129C96.352 76.7377 77.4295 95.4908 54.0861 95.4908Z" fill="url(#paint2_linear_3006_30)"/>
<path d="M40.9643 38.4092C40.9302 37.983 40.7704 37.6507 40.4849 37.412C40.2036 37.1734 39.7754 37.0541 39.2001 37.0541C38.8336 37.0541 38.5332 37.0988 38.2988 37.1883C38.0687 37.2735 37.8982 37.3907 37.7874 37.5399C37.6766 37.689 37.6191 37.8595 37.6149 38.0512C37.6063 38.2089 37.634 38.3517 37.698 38.4795C37.7661 38.6031 37.8727 38.716 38.0176 38.8183C38.1624 38.9163 38.3478 39.0058 38.5737 39.0867C38.7995 39.1677 39.068 39.2401 39.3791 39.3041L40.4529 39.5342C41.1774 39.6876 41.7974 39.89 42.313 40.1414C42.8286 40.3928 43.2505 40.689 43.5786 41.0299C43.9068 41.3666 44.1475 41.7458 44.3009 42.1677C44.4586 42.5896 44.5396 43.0498 44.5438 43.5484C44.5396 44.4092 44.3244 45.1379 43.8982 45.7345C43.4721 46.3311 42.8627 46.7849 42.0701 47.096C41.2818 47.407 40.3336 47.5626 39.2257 47.5626C38.0879 47.5626 37.095 47.3943 36.247 47.0576C35.4032 46.721 34.747 46.2032 34.2782 45.5044C33.8137 44.8012 33.5793 43.9021 33.5751 42.8069H36.9501C36.9714 43.2075 37.0715 43.5441 37.2505 43.8168C37.4295 44.0896 37.6809 44.2963 38.0048 44.4369C38.3329 44.5775 38.7228 44.6478 39.1745 44.6478C39.5538 44.6478 39.8712 44.6009 40.1269 44.5072C40.3826 44.4134 40.5765 44.2835 40.7086 44.1173C40.8407 43.9511 40.9089 43.7615 40.9132 43.5484C40.9089 43.3481 40.8428 43.1734 40.715 43.0242C40.5914 42.8708 40.3869 42.7345 40.1014 42.6151C39.8159 42.4916 39.4302 42.3765 38.9444 42.27L37.6404 41.9887C36.4813 41.7373 35.5673 41.3176 34.8982 40.7295C34.2335 40.1372 33.9032 39.3296 33.9075 38.3069C33.9032 37.4759 34.1248 36.7494 34.5722 36.1272C35.0239 35.5008 35.6482 35.0129 36.4451 34.6634C37.2462 34.314 38.1646 34.1393 39.2001 34.1393C40.2569 34.1393 41.171 34.3161 41.9423 34.6698C42.7136 35.0235 43.308 35.5221 43.7257 36.1656C44.1475 36.8048 44.3606 37.5526 44.3649 38.4092H40.9643ZM45.8958 47.4092V34.3183H51.5463C52.5179 34.3183 53.3681 34.51 54.0967 34.8936C54.8254 35.2771 55.3922 35.8161 55.797 36.5107C56.2019 37.2053 56.4043 38.0171 56.4043 38.9461C56.4043 39.8836 56.1955 40.6954 55.7779 41.3815C55.3645 42.0676 54.7828 42.596 54.0328 42.9667C53.2871 43.3374 52.4156 43.5228 51.4185 43.5228H48.0435V40.7615H50.7026C51.1202 40.7615 51.476 40.689 51.77 40.5441C52.0683 40.395 52.2963 40.184 52.454 39.9113C52.6159 39.6386 52.6969 39.3168 52.6969 38.9461C52.6969 38.5711 52.6159 38.2515 52.454 37.9873C52.2963 37.7188 52.0683 37.5143 51.77 37.3737C51.476 37.2288 51.1202 37.1563 50.7026 37.1563H49.4497V47.4092H45.8958ZM61.2622 34.3183V47.4092H57.7083V34.3183H61.2622ZM74.2732 34.3183V47.4092H71.3073L66.5772 40.5313H66.5005V47.4092H62.9465V34.3183H65.9636L70.617 41.1705H70.7193V34.3183H74.2732ZM43.16 56.3183V69.4092H40.194L35.4639 62.5313H35.3872V69.4092H31.8333V56.3183H34.8503L39.5037 63.1705H39.606V56.3183H43.16ZM57.5229 62.8637C57.5229 64.3211 57.2395 65.5505 56.6727 66.5519C56.106 67.5491 55.3411 68.3055 54.378 68.8211C53.4149 69.3325 52.3411 69.5882 51.1564 69.5882C49.9632 69.5882 48.8851 69.3303 47.922 68.8147C46.9632 68.2948 46.2004 67.5363 45.6337 66.5392C45.0712 65.5377 44.7899 64.3126 44.7899 62.8637C44.7899 61.4063 45.0712 60.1791 45.6337 59.1819C46.2004 58.1805 46.9632 57.4241 47.922 56.9127C48.8851 56.3971 49.9632 56.1393 51.1564 56.1393C52.3411 56.1393 53.4149 56.3971 54.378 56.9127C55.3411 57.4241 56.106 58.1805 56.6727 59.1819C57.2395 60.1791 57.5229 61.4063 57.5229 62.8637ZM53.8666 62.8637C53.8666 62.0796 53.7622 61.4191 53.5534 60.8822C53.3489 60.341 53.0442 59.9319 52.6394 59.6549C52.2388 59.3737 51.7445 59.233 51.1564 59.233C50.5683 59.233 50.0719 59.3737 49.6671 59.6549C49.2665 59.9319 48.9618 60.341 48.753 60.8822C48.5485 61.4191 48.4462 62.0796 48.4462 62.8637C48.4462 63.6478 48.5485 64.3105 48.753 64.8517C48.9618 65.3886 49.2665 65.7977 49.6671 66.0789C50.0719 66.3559 50.5683 66.4944 51.1564 66.4944C51.7445 66.4944 52.2388 66.3559 52.6394 66.0789C53.0442 65.7977 53.3489 65.3886 53.5534 64.8517C53.7622 64.3105 53.8666 63.6478 53.8666 62.8637ZM61.6649 69.4092L57.8041 56.3183H61.7672L63.557 64.3722H63.6592L65.7814 56.3183H68.9007L71.0229 64.3978H71.1252L72.9149 56.3183H76.878L73.0172 69.4092H69.6166L67.3922 62.0967H67.2899L65.0655 69.4092H61.6649Z" fill="#F6EC81"/>
<g filter="url(#filter0_d_3006_30)">
<path fill-rule="evenodd" clip-rule="evenodd" d="M53.9432 98.4471C78.8184 98.4471 98.9838 78.4815 98.9838 53.8525C98.9838 29.2236 78.8184 9.25794 53.9432 9.25794C29.068 9.25794 8.9027 29.2236 8.9027 53.8525C8.9027 78.4815 29.068 98.4471 53.9432 98.4471ZM53.9432 103.853C81.8336 103.853 104.443 81.4668 104.443 53.8525C104.443 26.2383 81.8336 3.85254 53.9432 3.85254C26.0529 3.85254 3.44324 26.2383 3.44324 53.8525C3.44324 81.4668 26.0529 103.853 53.9432 103.853Z" fill="white"/>
<path d="M97.4838 53.8525C97.4838 77.639 78.0041 96.9471 53.9432 96.9471C29.8824 96.9471 10.4027 77.639 10.4027 53.8525C10.4027 30.0661 29.8824 10.7579 53.9432 10.7579C78.0041 10.7579 97.4838 30.0661 97.4838 53.8525ZM53.9432 105.353C82.6479 105.353 105.943 82.3092 105.943 53.8525C105.943 25.3958 82.6479 2.35254 53.9432 2.35254C25.2385 2.35254 1.94324 25.3958 1.94324 53.8525C1.94324 82.3092 25.2385 105.353 53.9432 105.353Z" stroke="#FFDA00" stroke-width="3"/>
</g>
</g>
<defs>
<filter id="filter0_d_3006_30" x="-14.5568" y="-14.1475" width="137" height="136" filterUnits="userSpaceOnUse" color-interpolation-filters="sRGB">
<feFlood flood-opacity="0" result="BackgroundImageFix"/>
<feColorMatrix in="SourceAlpha" type="matrix" values="0 0 0 0 0 0 0 0 0 0 0 0 0 0 0 0 0 0 127 0" result="hardAlpha"/>
<feOffset/>
<feGaussianBlur stdDeviation="7.5"/>
<feComposite in2="hardAlpha" operator="out"/>
<feColorMatrix type="matrix" values="0 0 0 0 0.988235 0 0 0 0 0.913725 0 0 0 0 0.486275 0 0 0 1 0"/>
<feBlend mode="normal" in2="BackgroundImageFix" result="effect1_dropShadow_3006_30"/>
<feBlend mode="normal" in="SourceGraphic" in2="effect1_dropShadow_3006_30" result="shape"/>
</filter>
<linearGradient id="paint0_linear_3006_30" x1="54.0861" y1="95.7913" x2="54.0861" y2="11.4365" gradientUnits="userSpaceOnUse">
<stop stop-color="#F7931E"/>
<stop offset="1" stop-color="#F15A24"/>
</linearGradient>
<linearGradient id="paint1_linear_3006_30" x1="54.084" y1="93.046" x2="54.084" y2="14.1777" gradientUnits="userSpaceOnUse">
<stop stop-color="#F15A24"/>
<stop offset="1" stop-color="#F7931E"/>
</linearGradient>
<linearGradient id="paint2_linear_3006_30" x1="54.0861" y1="104.234" x2="54.0861" y2="3" gradientUnits="userSpaceOnUse">
<stop stop-color="#F5F5F5"/>
<stop offset="1" stop-color="#999999"/>
</linearGradient>
</defs>
</svg>
